# xmcd CD database file
#
# Track frame offsets:
#	150
#	14209
#	26875
#	43373
#	61859
#	73113
#	87435
#	108628
#	120327
#	133489
#	144269
#	155730
#	171566
#	187184
#
# Disc length: 2774 seconds
#
# Revision: 0
# Processed by: cddbd v1.5.2PL0 Copyright (c) Steve Scherf et al.
# Submitted via: ACXtractor (MTCDDB.DLL V2003.12.21)
#
DISCID=e00ad40e
DTITLE=Brian Letton - Somewhere over the Rainbow
DYEAR=2008
DGENRE=Country
TTITLE0=Over the Rainbow
TTITLE1=Mansion over the Hilltop
TTITLE2=What a Friend we Have in Jesus
TTITLE3=I Know a Man Who Can
TTITLE4=Across the River
TTITLE5=In the Garden
TTITLE6=The Poorest Millionaire
TTITLE7=On the Wings of a Dove
TTITLE8=He
TTITLE9=Royal Telephone
TTITLE10=The Nightwatch
TTITLE11=From the Shelter of the Cross
TTITLE12=I saw the Light
TTITLE13=Amazing Grace
EXTD=ID3G:   2 YEAR: 2008
EXTT0=
EXTT1=
EXTT2=
EXTT3=
EXTT4=
EXTT5=
EXTT6=
EXTT7=
EXTT8=
EXTT9=
EXTT10=
EXTT11=
EXTT12=
EXTT13=
PLAYORDER=
